<svg id="Calque_1" data-name="Calque 1" xmlns="http://www.w3.org/2000/svg" viewBox="0 0 512 512"><defs><style>.cls-1{fill:#fff;}.cls-2{fill:#575756;}.cls-3{fill:none;}</style></defs><path class="cls-1" d="M466.35,294.49a127.1,127.1,0,0,1,8.41,46.28,172.65,172.65,0,0,1-9.82,57.49q-9.81,30.17-24.53,48.38a81.85,81.85,0,0,1-23.84,18.58q-14,7.36-28.05,7.37a47.91,47.91,0,0,1-21.74-4.91q-32.25-16.12-48.38-65.21-6.3-21-14.72-58.2l-9.12-35.75h-.7l.7,2.8a153.94,153.94,0,0,0,2.81,18.23q1.39,14,1.4,24.54,0,25.25-7.71,33.66-7,9.12-22.44,9.11-7,0-18.93-3.5a.63.63,0,0,0-.7-.71,289.14,289.14,0,0,1-43.47-21.38q-18.93-11.56-20.34-11.57t1.76,6q3.15,6,9.46,15.78a157.54,157.54,0,0,1,9.82,16.82A12.15,12.15,0,0,1,209,406c0,4.2-2.45,7.48-7.36,9.81s-11.34,3.51-19.28,3.51q-24.56,0-55-14T71.59,361.1Q46.36,331,38.64,286.78l-1.4-13.32q-3.52-51.88,14-96.06H52q18.93-47,61-71.87t98.87-24.89a270.38,270.38,0,0,1,45.57,4.21,43.39,43.39,0,0,0,8.42.7c2.33,0,3.5-.46,3.5-1.41q0-2.79-13.32-11.21a222.19,222.19,0,0,1-19.28-14c-4.45-3.73-6.66-7.24-6.66-10.52q0-9.8,36.46-9.81l24.54.7q72.21,4.92,129.71,52.59,17.52,17.53,27.35,35.06,3.5,7.71,8.06,21a88.23,88.23,0,0,1,4.56,28.75q0,35.07-29.45,49.08a62.21,62.21,0,0,1-29.45,7,69.33,69.33,0,0,1-30.15-7,70.31,70.31,0,0,1-25.24-20.34l-2.8-4.9L335.23,183l-2.8-7.72A108,108,0,0,0,324.71,155q-4.9-9.81-4.9-11.92c0-1.86,2.1-2.8,6.31-2.8q8.42,0,21,6.31,11.21,6.3,21.74,21.73l1.4-.7q-14-26.64-44.53-41a150.42,150.42,0,0,0-64.85-14.37,152.47,152.47,0,0,0-44.18,7l-.7,2.11a117.44,117.44,0,0,1,33-4.91q32.94,0,54.34,18.58t21.38,46.63a42.2,42.2,0,0,1-.7,9.11,15.14,15.14,0,0,1-3.85,7.71,9.61,9.61,0,0,1-7.37,3.51q-9.12,0-17.52-14L289,178.1a64.13,64.13,0,0,0-22.43-18.58,63.44,63.44,0,0,0-28.75-6.66q-26.65,0-45.57,18.93t-18.94,45.57q0,28.77,21,47.68T243.38,284q21.72,0,38.56-6.66T319.81,258q18.93-10.51,30.85-15.77A65.23,65.23,0,0,1,377.3,237,84.55,84.55,0,0,1,399,239.8q26.64,8.41,43.47,23.84T466.35,294.49Z"/><path class="cls-2" d="M294.56,308.52l9.12,35.75q8.42,37.19,14.72,58.2,16.13,49.08,48.38,65.21a47.91,47.91,0,0,0,21.74,4.91q14,0,28.05-7.37a81.85,81.85,0,0,0,23.84-18.58q14.71-18.22,24.53-48.38a172.65,172.65,0,0,0,9.82-57.49,127.1,127.1,0,0,0-8.41-46.28q-7-15.4-23.84-30.85T399,239.8A84.55,84.55,0,0,0,377.3,237a65.23,65.23,0,0,0-26.64,5.26q-11.94,5.25-30.85,15.77-21,12.62-37.87,19.28T243.38,284q-28,0-49.08-18.93t-21-47.68q0-26.62,18.94-45.57t45.57-18.93a63.44,63.44,0,0,1,28.75,6.66A64.13,64.13,0,0,1,289,178.1l6.32,9.82q8.4,14,17.52,14a9.61,9.61,0,0,0,7.37-3.51,15.14,15.14,0,0,0,3.85-7.71,42.2,42.2,0,0,0,.7-9.11q0-28-21.38-46.63T249,116.4a117.44,117.44,0,0,0-33,4.91l.7-2.11a152.47,152.47,0,0,1,44.18-7,150.42,150.42,0,0,1,64.85,14.37q30.51,14.38,44.53,41l-1.4.7q-10.53-15.4-21.74-21.73-12.61-6.31-21-6.31c-4.21,0-6.31.94-6.31,2.8q0,2.1,4.9,11.92a108,108,0,0,1,7.72,20.33l2.8,7.72,8.42,17.53,2.8,4.9a70.31,70.31,0,0,0,25.24,20.34,69.33,69.33,0,0,0,30.15,7,62.21,62.21,0,0,0,29.45-7q29.44-14,29.45-49.08A88.23,88.23,0,0,0,456.18,148q-4.57-13.3-8.06-21-9.83-17.52-27.35-35.06Q363.28,44.19,291.06,39.27l-24.54-.7q-36.46,0-36.46,9.81c0,3.28,2.21,6.79,6.66,10.52a222.19,222.19,0,0,0,19.28,14q13.31,8.4,13.32,11.21c0,1-1.17,1.41-3.5,1.41a43.39,43.39,0,0,1-8.42-.7,270.38,270.38,0,0,0-45.57-4.21Q155,80.64,113,105.53T52,177.4h-.7q-17.53,44.17-14,96.06l1.4,13.32q7.71,44.18,33,74.32t55.75,44.17q30.49,14,55,14,11.91,0,19.28-3.51c4.91-2.33,7.36-5.61,7.36-9.81a12.15,12.15,0,0,0-2.8-7.72,157.54,157.54,0,0,0-9.82-16.82q-6.3-9.82-9.46-15.78t-1.76-6q1.4,0,20.34,11.57A289.14,289.14,0,0,0,249,392.65a.63.63,0,0,1,.7.71q11.91,3.51,18.93,3.5,15.42,0,22.44-9.11,7.71-8.42,7.71-33.66,0-10.51-1.4-24.54a153.94,153.94,0,0,1-2.81-18.23l-.7-2.8Zm181.6-6a209,209,0,0,1,4.21,40.32q0,24.56-9.82,56.8c0,.94-.94,3.5-2.8,7.71q6.31,15.42,6.31,27.34a48.88,48.88,0,0,1-2.81,16.83q-2.81,9.12-11.91,15.08a36.43,36.43,0,0,1-20.34,6q-10.51,0-17.53-4.21-16.82,11.22-33,11.22-16.83,0-34.36-12.62l-7,2.1q-33.66,9.82-82.74,11.92-66.62,2.1-117.79-26.64a223.16,223.16,0,0,1-56.44-42.78q-24.9-25.92-36.81-57.49l-.71-.7a227.74,227.74,0,0,1-20.33-79.23,155.88,155.88,0,0,1-.7-17.53,233.61,233.61,0,0,1,2.1-31.55Q37.95,169,69.49,124.81t82.39-69.06Q202.7,30.86,261.61,30.86q45.57,0,93.95,16.12Q432.69,75.74,461.44,143a125,125,0,0,1,12.62,55.39q0,20.35-6.66,35.76A50.37,50.37,0,0,1,446.72,258l3.5,3.51Q472,281.17,476.16,302.55Z"/><rect class="cls-3" width="512.96" height="512.96"/></svg>